<?xml version="1.0" standalone="no"?>
<!DOCTYPE svg PUBLIC "-//W3C//DTD SVG 20010904//EN"
 "http://www.w3.org/TR/2001/REC-SVG-20010904/DTD/svg10.dtd">
<svg version="1.0" xmlns="http://www.w3.org/2000/svg"
 width="714.000000pt" height="350.000000pt" viewBox="0 0 714.000000 350.000000"
 preserveAspectRatio="xMidYMid meet">

<g transform="translate(0.000000,350.000000) scale(0.100000,-0.100000)"
fill="#000000" stroke="none">
<path d="M1206 2568 c14 -38 17 -767 4 -812 -9 -31 -9 -41 2 -47 18 -12 565
-11 573 0 3 6 5 205 5 443 l0 433 -296 3 -296 2 8 -22z"/>
<path d="M2085 2581 c-3 -5 -1 -13 5 -16 7 -4 10 -144 10 -426 -1 -230 2 -423
5 -429 6 -10 511 -15 537 -5 10 4 12 38 9 160 -2 85 1 155 5 155 15 0 35 -17
47 -38 7 -11 35 -57 62 -102 28 -45 61 -103 75 -128 l25 -47 319 -3 c225 -2
323 1 332 9 11 9 6 20 -26 57 -22 25 -55 70 -73 99 -17 30 -36 62 -42 71 -5
10 -35 55 -66 102 -31 47 -69 108 -85 137 l-28 52 20 28 c11 15 38 53 59 83
21 30 42 59 47 65 4 5 30 39 57 75 26 36 55 71 64 79 10 7 17 17 17 22 0 5
-132 9 -295 9 l-295 0 0 -27 c0 -23 -56 -117 -95 -159 -5 -6 -17 -22 -25 -34
-39 -57 -60 -83 -79 -97 -21 -14 -21 -14 -21 131 0 86 4 147 10 151 6 3 10 13
10 21 0 12 -44 14 -289 14 -168 0 -292 -4 -296 -9z"/>
<path d="M3695 2581 c-3 -5 -1 -13 5 -16 7 -4 10 -144 10 -427 -1 -231 3 -425
7 -429 5 -5 234 -8 509 -7 l499 3 3 135 c1 74 -2 141 -7 149 -7 11 -14 10 -43
-3 -29 -14 -66 -16 -229 -14 l-194 3 -3 26 c-5 46 14 51 170 46 79 -3 156 -8
171 -12 l28 -7 -3 123 -3 123 -180 1 -180 0 0 30 0 30 207 3 c179 2 208 0 222
-14 9 -9 23 -13 32 -10 12 5 14 28 12 138 l-3 133 -512 3 c-311 1 -514 -1
-518 -7z"/>
<path d="M5169 2583 c-1 -5 0 -19 1 -31 2 -22 -25 -107 -55 -177 -7 -16 -21
-50 -30 -75 -17 -44 -26 -65 -59 -143 -9 -21 -16 -42 -16 -48 0 -6 -8 -29 -19
-52 -10 -23 -33 -82 -51 -132 -37 -103 -59 -153 -79 -177 -7 -10 -11 -24 -7
-33 5 -13 37 -15 253 -13 l248 3 6 45 c9 65 34 116 61 124 28 7 196 8 223 0
25 -6 56 -69 57 -114 0 -19 5 -41 11 -47 7 -10 82 -13 314 -13 264 0 304 2
310 15 3 9 -1 23 -10 33 -14 16 -34 57 -71 152 -10 25 -24 59 -31 75 -7 17
-21 50 -30 75 -10 25 -23 57 -31 72 -8 14 -14 31 -14 37 0 6 -13 40 -30 74
-16 35 -30 67 -30 71 0 4 -8 26 -18 49 -10 23 -27 62 -36 87 -10 25 -23 54
-28 66 -5 11 -8 33 -6 50 l3 29 -417 3 c-230 1 -418 -1 -419 -5z m394 -448
c33 -81 34 -93 1 -101 -25 -6 -92 0 -102 10 -6 7 58 156 68 156 3 0 18 -29 33
-65z"/>
<path d="M3993 652 c-11 -9 -33 -50 -48 -91 -25 -62 -39 -82 -92 -130 -186
-166 -354 -192 -252 -38 56 85 128 131 143 92 8 -22 24 -18 31 6 8 24 -8 39
-41 39 -11 0 -42 -14 -68 -31 -27 -18 -65 -34 -89 -36 -55 -6 -124 12 -137 37
-13 24 -56 27 -86 6 -39 -28 -214 -48 -214 -25 0 6 18 41 40 79 22 38 40 74
40 80 0 29 -29 -4 -76 -86 l-52 -89 -56 -9 c-67 -11 -79 -36 -16 -36 22 0 40
-4 40 -9 0 -5 -18 -40 -39 -78 -60 -104 -63 -145 -11 -128 15 5 19 12 14 30
-8 31 72 184 101 195 24 8 145 22 145 15 0 -2 -14 -19 -31 -37 -17 -18 -39
-50 -50 -71 -19 -36 -19 -40 -4 -64 15 -22 21 -24 58 -18 45 8 99 33 134 63
32 28 73 92 73 114 0 16 4 18 23 11 12 -4 43 -8 70 -8 26 0 47 -1 47 -2 0 -1
-13 -23 -30 -50 -37 -60 -44 -98 -23 -119 35 -35 168 16 271 103 29 25 55 43
58 40 3 -3 -11 -39 -30 -81 -20 -42 -36 -81 -36 -86 0 -27 34 2 59 50 7 14 24
33 38 44 25 18 25 18 51 -3 52 -41 127 -81 154 -81 15 0 39 5 55 12 l28 11
-43 8 c-57 11 -198 89 -182 101 3 2 37 27 75 55 82 60 126 103 104 103 -17 0
-50 -23 -159 -112 -45 -38 -86 -68 -92 -68 -5 0 21 60 60 133 38 72 72 140 75
149 9 25 -8 31 -30 10z m-592 -182 c60 -33 -38 -161 -136 -177 -72 -12 -51 64
40 143 52 46 64 50 96 34z"/>
<path d="M2799 626 c-57 -15 -135 -60 -149 -86 -17 -32 -12 -75 13 -98 12 -11
51 -31 87 -44 56 -20 65 -26 65 -48 0 -20 -11 -31 -54 -54 -44 -23 -72 -30
-140 -35 -87 -6 -118 -24 -64 -37 71 -18 239 39 289 99 45 53 27 82 -70 116
-65 23 -96 45 -96 71 0 41 98 90 179 90 49 0 79 -18 66 -40 -3 -5 -2 -10 2
-10 16 0 33 24 33 47 0 41 -69 54 -161 29z"/>
</g>
</svg>
